<svg xmlns="http://www.w3.org/2000/svg" viewBox="0 0 16 16" fill="#000000"><path d="
M0.6465 10.5
a2.2071 2.2071 0 0 1 0 -3.121
l0.5 -0.5
a2.2071 2.2071 0 0 1 3.121 0
l1.5605 1.5605
l5.914 -5.914
a2.2071 2.2071 0 0 1 3.121 0
l0.5 0.5
a2.2071 2.2071 0 0 1 0 3.121
l-7.62 7.62
a2.707 2.707 0 0 1 -3.828 0
l-3.2665 -3.2665

l1 -1

l3.2665 3.2665
a1.292 1.292 0 0 0 1.827 0
l7.62 -7.62
a0.792 0.792 0 0 0 0 -1.12
l-0.5 -0.5
a0.792 0.792 0 0 0 -1.12 0
l-5.914 5.914
a1.414 1.414 0 0 1 -1.999 0
l-1.5605 -1.5605
a0.792 0.792 0 0 0 -1.12 0
l-0.5 0.5
a0.792 0.792 0 0 0 0 1.12
z
"/></svg>